<svg xmlns="http://www.w3.org/2000/svg" xmlns:xlink="http://www.w3.org/1999/xlink" width="2000" zoomAndPan="magnify" viewBox="0 0 1500 1499.999933" height="2000" preserveAspectRatio="xMidYMid meet" version="1.0"><defs><g/><clipPath id="6ffb2f3912"><path d="M 336.320312 336.320312 L 1163.570312 336.320312 L 1163.570312 1163.570312 L 336.320312 1163.570312 Z M 336.320312 336.320312 " clip-rule="nonzero"/></clipPath><clipPath id="74c293a13f"><rect x="0" width="429" y="0" height="615"/></clipPath><clipPath id="02fb04b9d9"><rect x="0" width="588" y="0" height="164"/></clipPath><clipPath id="a1da4fb5ef"><rect x="0" width="790" y="0" height="346"/></clipPath></defs><g clip-path="url(#6ffb2f3912)"><path fill="#764b36" d="M 749.855469 1163.675781 C 521.949219 1163.675781 336.320312 978.046875 336.320312 749.855469 C 336.320312 521.667969 521.949219 336.320312 749.855469 336.320312 C 977.765625 336.320312 1163.394531 521.949219 1163.394531 749.855469 C 1163.675781 978.046875 978.046875 1163.675781 749.855469 1163.675781 Z M 749.855469 343.320312 C 525.589844 343.320312 343.320312 525.589844 343.320312 749.855469 C 343.320312 974.125 525.871094 1156.675781 749.855469 1156.675781 C 973.84375 1156.675781 1156.675781 974.125 1156.675781 749.855469 C 1156.675781 525.589844 974.125 343.320312 749.855469 343.320312 Z M 749.855469 343.320312 " fill-opacity="1" fill-rule="nonzero"/></g><g transform="matrix(1, 0, 0, 1, 549, 445)"><g clip-path="url(#74c293a13f)"><g fill="#764b36" fill-opacity="1"><g transform="translate(4.732083, 355.67505)"><g><path d="M 99 166.9375 C 104.539062 166.9375 110.742188 165.066406 117.609375 161.328125 C 124.472656 157.597656 130.976562 153.203125 137.125 148.140625 C 143.269531 143.085938 147.90625 138.390625 151.03125 134.046875 C 152.957031 131.640625 154.644531 129.53125 156.09375 127.71875 C 157.539062 125.914062 159.109375 123.8125 160.796875 121.40625 C 161.992188 119 163.316406 116.769531 164.765625 114.71875 C 166.210938 112.675781 167.414062 110.445312 168.375 108.03125 C 172.226562 100.570312 174.757812 94.070312 175.96875 88.53125 C 177.175781 82.988281 177.71875 77.503906 177.59375 72.078125 C 177.46875 66.660156 177.046875 60.582031 176.328125 53.84375 C 174.640625 54.320312 173.3125 54.984375 172.34375 55.828125 C 171.382812 56.671875 170.0625 57.691406 168.375 58.890625 C 167.414062 59.859375 166.394531 60.703125 165.3125 61.421875 C 164.226562 62.148438 163.082031 62.992188 161.875 63.953125 L 142.359375 81.296875 C 135.859375 87.316406 130.5625 92.191406 126.46875 95.921875 C 122.375 99.660156 118.457031 103.578125 114.71875 107.671875 C 110.988281 111.765625 106.351562 117.546875 100.8125 125.015625 C 99.125 127.179688 97.015625 130.191406 94.484375 134.046875 C 91.953125 137.898438 89.722656 141.992188 87.796875 146.328125 C 85.867188 150.671875 84.90625 154.53125 84.90625 157.90625 C 84.90625 162.238281 85.804688 164.828125 87.609375 165.671875 C 89.421875 166.515625 92.5 166.9375 96.84375 166.9375 C 97.320312 166.9375 97.738281 166.9375 98.09375 166.9375 C 98.457031 166.9375 98.757812 166.9375 99 166.9375 Z M 0 -43 C 0 -56.007812 2.226562 -69.617188 6.6875 -83.828125 C 11.144531 -98.035156 16.804688 -112.003906 23.671875 -125.734375 C 30.535156 -139.472656 37.457031 -151.757812 44.4375 -162.59375 C 47.570312 -168.375 51.609375 -174.578125 56.546875 -181.203125 C 61.484375 -187.828125 66.660156 -194.390625 72.078125 -200.890625 C 77.503906 -207.398438 82.503906 -213.0625 87.078125 -217.875 C 95.265625 -225.832031 103.570312 -233.117188 112 -239.734375 C 120.4375 -246.359375 129.53125 -251.71875 139.28125 -255.8125 C 149.039062 -259.914062 159.820312 -261.96875 171.625 -261.96875 C 183.1875 -261.238281 192.640625 -256.835938 199.984375 -248.765625 C 207.335938 -240.703125 212.820312 -230.769531 216.4375 -218.96875 C 220.050781 -207.164062 221.859375 -195 221.859375 -182.46875 C 221.859375 -168.257812 220.410156 -153.804688 217.515625 -139.109375 C 214.628906 -124.421875 211.5 -110.691406 208.125 -97.921875 C 206.914062 -92.378906 205.648438 -87.5 204.328125 -83.28125 C 203.003906 -79.070312 200.296875 -76.96875 196.203125 -76.96875 C 193.304688 -76.96875 191.738281 -79.132812 191.5 -83.46875 C 191.257812 -87.800781 191.679688 -93.039062 192.765625 -99.1875 C 193.847656 -105.332031 195.050781 -111.050781 196.375 -116.34375 C 197.707031 -121.644531 198.613281 -125.140625 199.09375 -126.828125 C 200.78125 -137.179688 202.285156 -148.320312 203.609375 -160.25 C 204.929688 -172.175781 205.109375 -184.039062 204.140625 -195.84375 C 203.179688 -207.644531 200.175781 -218.363281 195.125 -228 C 191.507812 -234.988281 187.171875 -239.863281 182.109375 -242.625 C 177.046875 -245.394531 171.625 -246.78125 165.84375 -246.78125 C 160.789062 -246.78125 155.671875 -245.878906 150.484375 -244.078125 C 145.304688 -242.273438 140.3125 -240.046875 135.5 -237.390625 C 132.125 -235.222656 128.328125 -232.753906 124.109375 -229.984375 C 119.898438 -227.210938 116.347656 -224.382812 113.453125 -221.5 C 111.765625 -219.8125 110.140625 -218.425781 108.578125 -217.34375 C 107.015625 -216.257812 105.390625 -214.753906 103.703125 -212.828125 L 61.0625 -161.875 C 56.25 -154.40625 52.457031 -148.203125 49.6875 -143.265625 C 46.914062 -138.328125 43.84375 -132.726562 40.46875 -126.46875 C 37.09375 -121.164062 33.597656 -114.359375 29.984375 -106.046875 C 26.378906 -97.734375 23.25 -89.300781 20.59375 -80.75 C 17.945312 -72.207031 16.019531 -64.921875 14.8125 -58.890625 C 14.09375 -53.359375 13.613281 -47.941406 13.375 -42.640625 C 13.132812 -37.335938 13.851562 -32.035156 15.53125 -26.734375 C 17.945312 -20.710938 22.40625 -16.4375 28.90625 -13.90625 C 35.40625 -11.382812 42.628906 -9.878906 50.578125 -9.390625 C 58.535156 -8.910156 65.765625 -8.550781 72.265625 -8.3125 C 80.941406 -7.832031 88.769531 -7.53125 95.75 -7.40625 C 102.738281 -7.289062 109.722656 -6.867188 116.703125 -6.140625 C 123.691406 -5.421875 131.398438 -3.613281 139.828125 -0.71875 C 144.648438 0.726562 150.007812 3.132812 155.90625 6.5 C 161.8125 9.875 167.171875 13.847656 171.984375 18.421875 C 176.804688 23.003906 179.820312 27.820312 181.03125 32.875 C 186.320312 29.269531 192.460938 24.632812 199.453125 18.96875 C 206.441406 13.3125 213.488281 7.46875 220.59375 1.4375 C 227.695312 -4.582031 233.898438 -9.757812 239.203125 -14.09375 L 267.015625 -38.65625 C 269.429688 -41.070312 271.722656 -43.117188 273.890625 -44.796875 C 276.054688 -46.484375 278.34375 -48.535156 280.75 -50.953125 C 284.84375 -55.285156 287.910156 -58.171875 289.953125 -59.609375 C 292.003906 -61.054688 293.753906 -61.78125 295.203125 -61.78125 C 296.171875 -61.78125 297.015625 -61.660156 297.734375 -61.421875 C 298.453125 -61.179688 299.296875 -60.941406 300.265625 -60.703125 C 300.265625 -58.296875 300.503906 -56.847656 300.984375 -56.359375 C 301.460938 -55.878906 301.640625 -55.457031 301.515625 -55.09375 C 301.398438 -54.738281 300.5625 -53.898438 299 -52.578125 C 297.4375 -51.253906 294.609375 -48.539062 290.515625 -44.4375 C 282.554688 -36.726562 275.265625 -29.984375 268.640625 -24.203125 C 262.023438 -18.421875 254.984375 -11.921875 247.515625 -4.703125 L 224.390625 14.09375 C 222.460938 15.539062 219.628906 17.769531 215.890625 20.78125 C 212.160156 23.789062 208.1875 26.976562 203.96875 30.34375 C 199.75 33.71875 196.015625 36.789062 192.765625 39.5625 C 189.515625 42.332031 187.53125 44.320312 186.8125 45.53125 C 187.769531 49.382812 188.609375 53.296875 189.328125 57.265625 C 190.054688 61.242188 190.421875 65.519531 190.421875 70.09375 C 190.421875 82.863281 187.46875 95.628906 181.5625 108.390625 C 175.664062 121.160156 168.078125 132.90625 158.796875 143.625 C 149.523438 154.34375 139.707031 162.894531 129.34375 169.28125 C 118.988281 175.664062 109.359375 178.859375 100.453125 178.859375 C 97.078125 178.859375 93.28125 178.492188 89.0625 177.765625 C 84.851562 177.046875 81.179688 175.539062 78.046875 173.25 C 74.910156 170.96875 73.34375 167.296875 73.34375 162.234375 C 73.34375 153.328125 74.847656 145.617188 77.859375 139.109375 C 80.878906 132.609375 85.035156 125.742188 90.328125 118.515625 C 98.273438 107.429688 106.582031 97.796875 115.25 89.609375 C 123.925781 81.421875 133.082031 73.109375 142.71875 64.671875 L 171.625 40.828125 C 165.125 28.546875 156.9375 20.054688 147.0625 15.359375 C 137.1875 10.660156 125.140625 7.46875 110.921875 5.78125 L 81.65625 3.609375 C 70.332031 3.367188 59.789062 3.128906 50.03125 2.890625 C 40.28125 2.648438 31.3125 0.960938 23.125 -2.171875 C 15.414062 -5.054688 9.632812 -9.992188 5.78125 -16.984375 C 1.925781 -23.972656 0 -32.644531 0 -43 Z M 0 -43 "/></g></g></g><g fill="#764b36" fill-opacity="1"><g transform="translate(292.348332, 355.67505)"><g><path d="M -101.53125 -161.15625 C -101.53125 -164.28125 -98.640625 -167.585938 -92.859375 -171.078125 C -87.078125 -174.578125 -79.789062 -178.015625 -71 -181.390625 C -62.207031 -184.765625 -52.929688 -187.957031 -43.171875 -190.96875 C -33.421875 -193.976562 -24.445312 -196.566406 -16.25 -198.734375 C -8.0625 -200.898438 -1.921875 -202.585938 2.171875 -203.796875 C 7.222656 -205.234375 10.773438 -206.070312 12.828125 -206.3125 C 14.878906 -206.5625 16.203125 -207.347656 16.796875 -208.671875 C 17.398438 -209.992188 18.066406 -212.703125 18.796875 -216.796875 C 20.722656 -226.671875 22.945312 -233.472656 25.46875 -237.203125 C 28 -240.941406 30.46875 -242.8125 32.875 -242.8125 C 34.800781 -242.8125 36.425781 -241.785156 37.75 -239.734375 C 39.082031 -237.691406 39.75 -235.222656 39.75 -232.328125 C 39.75 -230.160156 39.628906 -229.257812 39.390625 -229.625 C 39.148438 -229.988281 39.148438 -229.207031 39.390625 -227.28125 C 39.390625 -226.789062 39.445312 -226.1875 39.5625 -225.46875 C 39.6875 -224.75 39.75 -223.785156 39.75 -222.578125 C 39.75 -219.441406 39.144531 -217.875 37.9375 -217.875 C 36.738281 -217.875 35.535156 -217.691406 34.328125 -217.328125 C 33.117188 -216.972656 32.515625 -214.867188 32.515625 -211.015625 C 35.410156 -211.015625 38.601562 -211.4375 42.09375 -212.28125 C 45.582031 -213.125 48.65625 -213.664062 51.3125 -213.90625 C 61.90625 -215.832031 72.5 -217.578125 83.09375 -219.140625 C 93.695312 -220.710938 104.539062 -221.5 115.625 -221.5 C 121.40625 -221.5 125.617188 -220.289062 128.265625 -217.875 C 130.921875 -215.46875 131.882812 -213.0625 131.15625 -210.65625 C 130.4375 -208.25 127.789062 -207.046875 123.21875 -207.046875 C 122.726562 -208.972656 122.421875 -209.875 122.296875 -209.75 C 122.179688 -209.632812 121.039062 -209.816406 118.875 -210.296875 C 117.914062 -210.535156 115.988281 -210.65625 113.09375 -210.65625 C 108.039062 -210.65625 101.359375 -210.113281 93.046875 -209.03125 C 84.734375 -207.945312 76.117188 -206.679688 67.203125 -205.234375 C 58.296875 -203.785156 50.347656 -202.398438 43.359375 -201.078125 C 36.367188 -199.753906 31.789062 -198.851562 29.625 -198.375 L 22.40625 -124.296875 C 22.164062 -122.609375 22.101562 -120.800781 22.21875 -118.875 C 22.34375 -116.945312 22.40625 -115.019531 22.40625 -113.09375 C 22.40625 -110.6875 22.222656 -109.117188 21.859375 -108.390625 C 21.492188 -107.671875 21.3125 -105.988281 21.3125 -103.34375 C 21.3125 -98.039062 21.429688 -91.957031 21.671875 -85.09375 C 21.921875 -78.226562 21.800781 -72.867188 21.3125 -69.015625 C 21.070312 -66.847656 20.890625 -62.570312 20.765625 -56.1875 C 20.648438 -49.800781 20.53125 -42.390625 20.40625 -33.953125 C 20.289062 -25.523438 20.234375 -17.035156 20.234375 -8.484375 C 20.234375 0.0664062 20.234375 7.832031 20.234375 14.8125 C 20.234375 21.800781 20.351562 26.859375 20.59375 29.984375 C 20.59375 32.640625 20.894531 36.675781 21.5 42.09375 C 22.101562 47.507812 22.222656 52.382812 21.859375 56.71875 C 21.492188 61.0625 19.75 63.234375 16.625 63.234375 C 12.039062 63.234375 9.265625 60.703125 8.296875 55.640625 C 7.335938 50.585938 6.859375 45.890625 6.859375 41.546875 C 6.140625 32.878906 5.71875 22.765625 5.59375 11.203125 C 5.476562 -0.359375 5.476562 -11.921875 5.59375 -23.484375 C 5.71875 -35.046875 5.78125 -45.164062 5.78125 -53.84375 L 6.859375 -70.828125 C 6.859375 -74.191406 6.859375 -79.367188 6.859375 -86.359375 C 6.859375 -93.347656 6.976562 -100.753906 7.21875 -108.578125 C 7.46875 -116.410156 7.710938 -123.578125 7.953125 -130.078125 C 8.191406 -136.578125 8.550781 -141.15625 9.03125 -143.8125 C 9.507812 -146.21875 9.8125 -149.109375 9.9375 -152.484375 C 10.0625 -155.859375 10.242188 -158.75 10.484375 -161.15625 L 13.734375 -194.75 C 12.765625 -194.507812 10.65625 -194.03125 7.40625 -193.3125 C 4.15625 -192.59375 1.566406 -191.988281 -0.359375 -191.5 C -12.160156 -188.613281 -23.421875 -185.539062 -34.140625 -182.28125 C -44.859375 -179.03125 -55.878906 -175.238281 -67.203125 -170.90625 C -69.367188 -169.945312 -71.351562 -168.925781 -73.15625 -167.84375 C -74.96875 -166.757812 -76.957031 -165.734375 -79.125 -164.765625 C -82.019531 -163.554688 -83.890625 -162.710938 -84.734375 -162.234375 C -85.578125 -161.753906 -86 -161.148438 -86 -160.421875 C -86 -159.703125 -86.597656 -158.140625 -87.796875 -155.734375 C -88.765625 -155.492188 -89.726562 -155.3125 -90.6875 -155.1875 C -91.65625 -155.070312 -92.742188 -155.015625 -93.953125 -155.015625 C -95.878906 -155.015625 -97.625 -155.4375 -99.1875 -156.28125 C -100.75 -157.125 -101.53125 -158.75 -101.53125 -161.15625 Z M -101.53125 -161.15625 "/></g></g></g></g></g><g transform="matrix(1, 0, 0, 1, 457, 358)"><g clip-path="url(#02fb04b9d9)"><g fill="#764b36" fill-opacity="1"><g transform="translate(26.150489, 153.672221)"><g><path d="M 12.015625 -11.71875 C 10.046875 -9.75 7.835938 -8.40625 5.390625 -7.6875 C 2.941406 -6.976562 0.5 -6.941406 -1.9375 -7.578125 C -4.382812 -8.210938 -6.5625 -9.484375 -8.46875 -11.390625 C -10.382812 -13.304688 -11.664062 -15.476562 -12.3125 -17.90625 C -12.96875 -20.34375 -12.941406 -22.789062 -12.234375 -25.25 C -11.523438 -27.71875 -10.191406 -29.941406 -8.234375 -31.921875 C -6.753906 -33.398438 -5.144531 -34.515625 -3.40625 -35.265625 C -1.664062 -36.023438 0.109375 -36.375 1.921875 -36.3125 L 1.9375 -33.625 C -1.175781 -33.644531 -3.914062 -32.472656 -6.28125 -30.109375 C -7.851562 -28.523438 -8.921875 -26.726562 -9.484375 -24.71875 C -10.046875 -22.71875 -10.066406 -20.726562 -9.546875 -18.75 C -9.023438 -16.78125 -7.984375 -15.019531 -6.421875 -13.46875 C -4.867188 -11.914062 -3.097656 -10.878906 -1.109375 -10.359375 C 0.867188 -9.847656 2.859375 -9.878906 4.859375 -10.453125 C 6.859375 -11.023438 8.644531 -12.101562 10.21875 -13.6875 C 12.59375 -16.070312 13.75 -18.820312 13.6875 -21.9375 L 16.359375 -21.953125 C 16.429688 -20.128906 16.09375 -18.335938 15.34375 -16.578125 C 14.59375 -14.816406 13.484375 -13.195312 12.015625 -11.71875 Z M 12.015625 -11.71875 "/></g></g></g><g fill="#764b36" fill-opacity="1"><g transform="translate(51.708661, 128.613922)"><g><path d="M -14.5 -24.484375 L -12.21875 -26.390625 L 4.15625 -6.8125 L 16.21875 -16.90625 L 17.859375 -14.9375 L 3.515625 -2.9375 Z M -14.5 -24.484375 "/></g></g></g><g fill="#764b36" fill-opacity="1"><g transform="translate(75.29959, 109.137666)"><g><path d="M 14 -18.796875 L 1.125 -9.890625 L 2.609375 -1.796875 L 0.0625 -0.046875 L -5.359375 -30.453125 L -2.9375 -32.125 L 23.609375 -16.328125 L 21.015625 -14.546875 Z M 11.71875 -20.171875 L -2.390625 -28.734375 L 0.625 -12.5 Z M 11.71875 -20.171875 "/></g></g></g><g fill="#764b36" fill-opacity="1"><g transform="translate(104.848874, 89.154328)"><g><path d="M 20.09375 -14.171875 L 21.34375 -11.9375 L 4 -2.234375 L -9.703125 -26.75 L 7.109375 -36.15625 L 8.359375 -33.921875 L -5.859375 -25.96875 L -0.984375 -17.25 L 11.6875 -24.328125 L 12.921875 -22.109375 L 0.25 -15.03125 L 5.34375 -5.921875 Z M 20.09375 -14.171875 "/></g></g></g><g fill="#764b36" fill-opacity="1"><g transform="translate(134.534157, 72.980374)"><g><path d="M 11.359375 -4.796875 C 9.441406 -3.953125 7.472656 -3.441406 5.453125 -3.265625 C 3.441406 -3.097656 1.738281 -3.300781 0.34375 -3.875 L 0.453125 -6.4375 C 1.804688 -5.925781 3.378906 -5.722656 5.171875 -5.828125 C 6.972656 -5.941406 8.695312 -6.363281 10.34375 -7.09375 C 12.632812 -8.125 14.164062 -9.316406 14.9375 -10.671875 C 15.707031 -12.035156 15.796875 -13.390625 15.203125 -14.734375 C 14.742188 -15.753906 14.0625 -16.429688 13.15625 -16.765625 C 12.257812 -17.097656 11.285156 -17.226562 10.234375 -17.15625 C 9.191406 -17.082031 7.769531 -16.882812 5.96875 -16.5625 C 3.820312 -16.175781 2.078125 -15.953125 0.734375 -15.890625 C -0.609375 -15.835938 -1.898438 -16.09375 -3.140625 -16.65625 C -4.378906 -17.21875 -5.351562 -18.289062 -6.0625 -19.875 C -6.644531 -21.1875 -6.828125 -22.519531 -6.609375 -23.875 C -6.398438 -25.238281 -5.726562 -26.554688 -4.59375 -27.828125 C -3.46875 -29.109375 -1.851562 -30.21875 0.25 -31.15625 C 1.71875 -31.8125 3.242188 -32.25 4.828125 -32.46875 C 6.421875 -32.6875 7.890625 -32.671875 9.234375 -32.421875 L 9.265625 -29.859375 C 7.878906 -30.078125 6.5 -30.09375 5.125 -29.90625 C 3.75 -29.71875 2.46875 -29.363281 1.28125 -28.84375 C -0.957031 -27.84375 -2.453125 -26.648438 -3.203125 -25.265625 C -3.953125 -23.890625 -4.023438 -22.519531 -3.421875 -21.15625 C -2.960938 -20.125 -2.28125 -19.4375 -1.375 -19.09375 C -0.476562 -18.757812 0.515625 -18.632812 1.609375 -18.71875 C 2.703125 -18.800781 4.125 -19 5.875 -19.3125 C 7.96875 -19.695312 9.695312 -19.921875 11.0625 -19.984375 C 12.425781 -20.054688 13.710938 -19.8125 14.921875 -19.25 C 16.128906 -18.6875 17.082031 -17.625 17.78125 -16.0625 C 18.363281 -14.769531 18.546875 -13.4375 18.328125 -12.0625 C 18.109375 -10.695312 17.414062 -9.378906 16.25 -8.109375 C 15.082031 -6.835938 13.453125 -5.734375 11.359375 -4.796875 Z M 11.359375 -4.796875 "/></g></g></g><g fill="#764b36" fill-opacity="1"><g transform="translate(163.852, 60.436445)"><g/></g></g><g fill="#764b36" fill-opacity="1"><g transform="translate(180.422121, 54.283633)"><g><path d="M 6.8125 -31.15625 C 10.257812 -32.132812 13.195312 -32.078125 15.625 -30.984375 C 18.0625 -29.898438 19.6875 -27.921875 20.5 -25.046875 C 21.320312 -22.160156 20.984375 -19.617188 19.484375 -17.421875 C 17.992188 -15.234375 15.523438 -13.648438 12.078125 -12.671875 L 4.828125 -10.59375 L 7.265625 -2.0625 L 4.40625 -1.25 L -3.296875 -28.265625 Z M 11.296875 -15.15625 C 13.972656 -15.914062 15.851562 -17.082031 16.9375 -18.65625 C 18.019531 -20.238281 18.253906 -22.097656 17.640625 -24.234375 C 17.015625 -26.410156 15.828125 -27.878906 14.078125 -28.640625 C 12.328125 -29.410156 10.113281 -29.414062 7.4375 -28.65625 L 0.265625 -26.609375 L 4.125 -13.109375 Z M 11.296875 -15.15625 "/></g></g></g><g fill="#764b36" fill-opacity="1"><g transform="translate(214.755216, 44.765107)"><g><path d="M 22.765625 -32.53125 L 27.640625 -4.859375 L 24.75 -4.359375 L 22.5 -17.125 L 5.1875 -14.078125 L 7.4375 -1.3125 L 4.515625 -0.796875 L -0.359375 -28.46875 L 2.5625 -28.984375 L 4.734375 -16.65625 L 22.046875 -19.703125 L 19.875 -32.03125 Z M 22.765625 -32.53125 "/></g></g></g><g fill="#764b36" fill-opacity="1"><g transform="translate(253.947993, 38.578442)"><g><path d="M 1.953125 -28.390625 L 4.90625 -28.671875 L 7.515625 -0.703125 L 4.5625 -0.421875 Z M 1.953125 -28.390625 "/></g></g></g><g fill="#764b36" fill-opacity="1"><g transform="translate(273.202792, 36.829349)"><g><path d="M 3.90625 -28.1875 L 6.875 -28.265625 L 7.484375 -2.75 L 23.21875 -3.125 L 23.28125 -0.5625 L 4.578125 -0.109375 Z M 3.90625 -28.1875 "/></g></g></g><g fill="#764b36" fill-opacity="1"><g transform="translate(304.038065, 36.532707)"><g><path d="M 5.84375 -27.859375 L 8.8125 -27.71875 L 7.546875 0.34375 L 4.578125 0.203125 Z M 5.84375 -27.859375 "/></g></g></g><g fill="#764b36" fill-opacity="1"><g transform="translate(323.277298, 37.350144)"><g><path d="M 18.375 -26.078125 C 21.925781 -25.640625 24.609375 -24.445312 26.421875 -22.5 C 28.242188 -20.550781 28.976562 -18.09375 28.625 -15.125 C 28.257812 -12.144531 26.957031 -9.9375 24.71875 -8.5 C 22.488281 -7.0625 19.597656 -6.5625 16.046875 -7 L 8.546875 -7.90625 L 7.484375 0.90625 L 4.546875 0.546875 L 7.9375 -27.34375 Z M 16.296875 -9.59375 C 19.054688 -9.257812 21.238281 -9.609375 22.84375 -10.640625 C 24.457031 -11.671875 25.398438 -13.285156 25.671875 -15.484375 C 25.941406 -17.742188 25.414062 -19.566406 24.09375 -20.953125 C 22.78125 -22.335938 20.742188 -23.195312 17.984375 -23.53125 L 10.5625 -24.4375 L 8.875 -10.5 Z M 16.296875 -9.59375 "/></g></g></g><g fill="#764b36" fill-opacity="1"><g transform="translate(358.891318, 42.279744)"><g/></g></g><g fill="#764b36" fill-opacity="1"><g transform="translate(376.291057, 45.718218)"><g><path d="M 11.84375 3.421875 C 9.820312 2.878906 7.972656 2.035156 6.296875 0.890625 C 4.617188 -0.242188 3.425781 -1.476562 2.71875 -2.8125 L 4.421875 -4.703125 C 5.140625 -3.460938 6.234375 -2.316406 7.703125 -1.265625 C 9.171875 -0.222656 10.769531 0.53125 12.5 1 C 14.925781 1.65625 16.863281 1.695312 18.3125 1.125 C 19.769531 0.5625 20.691406 -0.425781 21.078125 -1.84375 C 21.367188 -2.925781 21.269531 -3.878906 20.78125 -4.703125 C 20.300781 -5.523438 19.628906 -6.238281 18.765625 -6.84375 C 17.898438 -7.457031 16.671875 -8.203125 15.078125 -9.078125 C 13.171875 -10.140625 11.675781 -11.070312 10.59375 -11.875 C 9.507812 -12.675781 8.664062 -13.679688 8.0625 -14.890625 C 7.457031 -16.109375 7.378906 -17.5625 7.828125 -19.25 C 8.203125 -20.625 8.898438 -21.773438 9.921875 -22.703125 C 10.953125 -23.628906 12.304688 -24.226562 13.984375 -24.5 C 15.671875 -24.769531 17.628906 -24.609375 19.859375 -24.015625 C 21.398438 -23.597656 22.851562 -22.972656 24.21875 -22.140625 C 25.59375 -21.316406 26.722656 -20.378906 27.609375 -19.328125 L 26.03125 -17.3125 C 25.082031 -18.363281 24.015625 -19.25 22.828125 -19.96875 C 21.640625 -20.695312 20.425781 -21.226562 19.1875 -21.5625 C 16.8125 -22.195312 14.898438 -22.210938 13.453125 -21.609375 C 12.003906 -21.015625 11.085938 -20 10.703125 -18.5625 C 10.410156 -17.476562 10.503906 -16.519531 10.984375 -15.6875 C 11.460938 -14.851562 12.148438 -14.125 13.046875 -13.5 C 13.953125 -12.882812 15.191406 -12.144531 16.765625 -11.28125 C 18.617188 -10.25 20.09375 -9.328125 21.1875 -8.515625 C 22.289062 -7.710938 23.132812 -6.710938 23.71875 -5.515625 C 24.3125 -4.328125 24.382812 -2.90625 23.9375 -1.25 C 23.570312 0.125 22.867188 1.269531 21.828125 2.1875 C 20.796875 3.113281 19.425781 3.703125 17.71875 3.953125 C 16.019531 4.203125 14.0625 4.023438 11.84375 3.421875 Z M 11.84375 3.421875 "/></g></g></g><g fill="#764b36" fill-opacity="1"><g transform="translate(406.811808, 54.277124)"><g><path d="M 18.140625 -20.578125 L 8.84375 -23.953125 L 9.71875 -26.359375 L 31.078125 -18.609375 L 30.203125 -16.203125 L 20.921875 -19.5625 L 12.21875 4.4375 L 9.4375 3.421875 Z M 18.140625 -20.578125 "/></g></g></g><g fill="#764b36" fill-opacity="1"><g transform="translate(434.946391, 64.682979)"><g><path d="M 23.296875 2.625 L 9.109375 -4.015625 L 2.875 1.34375 L 0.078125 0.03125 L 23.625 -19.953125 L 26.28125 -18.703125 L 25.984375 12.1875 L 23.140625 10.859375 Z M 23.328125 -0.015625 L 23.625 -16.53125 L 11.125 -5.75 Z M 23.328125 -0.015625 "/></g></g></g><g fill="#764b36" fill-opacity="1"><g transform="translate(467.190367, 80.443785)"><g><path d="M 17.796875 -22.203125 L 20.390625 -20.734375 L 6.578125 3.71875 L 3.984375 2.25 Z M 17.796875 -22.203125 "/></g></g></g><g fill="#764b36" fill-opacity="1"><g transform="translate(483.97249, 89.822664)"><g><path d="M 28.0625 1.96875 L 30.421875 3.578125 L 24.421875 12.453125 C 22.703125 12.671875 20.925781 12.53125 19.09375 12.03125 C 17.269531 11.539062 15.535156 10.742188 13.890625 9.640625 C 11.554688 8.066406 9.800781 6.140625 8.625 3.859375 C 7.445312 1.585938 6.9375 -0.804688 7.09375 -3.328125 C 7.25 -5.859375 8.082031 -8.238281 9.59375 -10.46875 C 11.101562 -12.71875 13 -14.390625 15.28125 -15.484375 C 17.5625 -16.578125 19.976562 -17.003906 22.53125 -16.765625 C 25.082031 -16.523438 27.535156 -15.613281 29.890625 -14.03125 C 31.671875 -12.832031 33.113281 -11.445312 34.21875 -9.875 C 35.320312 -8.3125 36.007812 -6.628906 36.28125 -4.828125 L 33.703125 -4.3125 C 33.078125 -7.363281 31.34375 -9.847656 28.5 -11.765625 C 26.613281 -13.035156 24.628906 -13.765625 22.546875 -13.953125 C 20.472656 -14.140625 18.503906 -13.789062 16.640625 -12.90625 C 14.773438 -12.019531 13.234375 -10.664062 12.015625 -8.84375 C 10.785156 -7.019531 10.109375 -5.082031 9.984375 -3.03125 C 9.867188 -0.976562 10.28125 0.972656 11.21875 2.828125 C 12.15625 4.679688 13.566406 6.242188 15.453125 7.515625 C 17.847656 9.128906 20.285156 9.894531 22.765625 9.8125 Z M 28.0625 1.96875 "/></g></g></g><g fill="#764b36" fill-opacity="1"><g transform="translate(515.132969, 111.362872)"><g><path d="M 20.46875 13.625 L 18.828125 15.59375 L 3.53125 2.921875 L 21.453125 -18.71875 L 36.28125 -6.4375 L 34.640625 -4.453125 L 22.09375 -14.84375 L 15.71875 -7.15625 L 26.90625 2.109375 L 25.296875 4.0625 L 14.109375 -5.203125 L 7.453125 2.84375 Z M 20.46875 13.625 "/></g></g></g><g fill="#764b36" fill-opacity="1"><g transform="translate(540.943414, 133.10317)"><g><path d="M 16.765625 16.84375 L 18.640625 5.921875 C 18.066406 5.460938 17.507812 4.960938 16.96875 4.421875 L 11.640625 -0.9375 L 5.328125 5.34375 L 3.234375 3.25 L 23.140625 -16.578125 L 30.5625 -9.125 C 33.082031 -6.59375 34.453125 -4 34.671875 -1.34375 C 34.898438 1.3125 33.957031 3.691406 31.84375 5.796875 C 30.28125 7.347656 28.570312 8.265625 26.71875 8.546875 C 24.863281 8.828125 22.972656 8.472656 21.046875 7.484375 L 19.0625 19.140625 Z M 18.703125 2.578125 C 20.660156 4.546875 22.597656 5.613281 24.515625 5.78125 C 26.429688 5.957031 28.175781 5.265625 29.75 3.703125 C 31.351562 2.097656 32.066406 0.34375 31.890625 -1.5625 C 31.710938 -3.46875 30.644531 -5.40625 28.6875 -7.375 L 23.421875 -12.671875 L 13.4375 -2.71875 Z M 18.703125 2.578125 "/></g></g></g></g></g><g transform="matrix(1, 0, 0, 1, 354, 794)"><g clip-path="url(#a1da4fb5ef)"><g fill="#764b36" fill-opacity="1"><g transform="translate(12.472191, 7.516771)"><g><path d="M 24.25 4.640625 L 22.609375 -4.09375 L 24.875 -4.53125 L 28.640625 15.5625 L 26.375 16 L 24.734375 7.265625 L 2.15625 11.5 L 1.671875 8.875 Z M 24.25 4.640625 "/></g></g></g><g fill="#764b36" fill-opacity="1"><g transform="translate(17.995578, 35.612403)"><g><path d="M 7.96875 20.625 L 5.734375 21.234375 L 1.078125 3.984375 L 25.484375 -2.609375 L 30 14.109375 L 27.765625 14.703125 L 23.9375 0.5625 L 15.265625 2.90625 L 18.6875 15.53125 L 16.484375 16.140625 L 13.0625 3.515625 L 4 5.953125 Z M 7.96875 20.625 "/></g></g></g><g fill="#764b36" fill-opacity="1"><g transform="translate(26.676956, 66.53612)"><g><path d="M 4.96875 14.265625 C 4.101562 11.910156 3.847656 9.597656 4.203125 7.328125 C 4.554688 5.054688 5.457031 3.046875 6.90625 1.296875 C 8.363281 -0.441406 10.234375 -1.726562 12.515625 -2.5625 C 14.804688 -3.394531 17.066406 -3.609375 19.296875 -3.203125 C 21.535156 -2.804688 23.519531 -1.84375 25.25 -0.3125 C 26.976562 1.207031 28.273438 3.144531 29.140625 5.5 C 29.773438 7.269531 30.070312 9.003906 30.03125 10.703125 C 30 12.410156 29.601562 13.992188 28.84375 15.453125 L 26.671875 14.421875 C 27.878906 11.890625 27.96875 9.207031 26.9375 6.375 C 26.25 4.5 25.191406 2.945312 23.765625 1.71875 C 22.347656 0.5 20.734375 -0.269531 18.921875 -0.59375 C 17.117188 -0.925781 15.285156 -0.753906 13.421875 -0.078125 C 11.578125 0.597656 10.0625 1.644531 8.875 3.0625 C 7.695312 4.476562 6.957031 6.109375 6.65625 7.953125 C 6.363281 9.796875 6.5625 11.65625 7.25 13.53125 C 8.289062 16.394531 10.09375 18.394531 12.65625 19.53125 L 11.625 21.71875 C 10.125 21.082031 8.796875 20.125 7.640625 18.84375 C 6.492188 17.5625 5.601562 16.035156 4.96875 14.265625 Z M 4.96875 14.265625 "/></g></g></g><g fill="#764b36" fill-opacity="1"><g transform="translate(38.580909, 98.384533)"><g><path d="M 33.640625 12.03125 L 10.78125 22.828125 L 9.65625 20.4375 L 20.203125 15.453125 L 13.453125 1.15625 L 2.90625 6.140625 L 1.765625 3.734375 L 24.625 -7.0625 L 25.765625 -4.65625 L 15.578125 0.15625 L 22.328125 14.453125 L 32.515625 9.640625 Z M 33.640625 12.03125 "/></g></g></g><g fill="#764b36" fill-opacity="1"><g transform="translate(54.922563, 132.06013)"><g><path d="M 34.640625 8.734375 L 12.9375 21.6875 L 11.8125 19.796875 L 21.09375 -4.671875 L 3.484375 5.84375 L 2.109375 3.546875 L 23.8125 -9.40625 L 24.953125 -7.515625 L 15.6875 16.984375 L 33.296875 6.46875 Z M 34.640625 8.734375 "/></g></g></g><g fill="#764b36" fill-opacity="1"><g transform="translate(74.427187, 164.020633)"><g><path d="M 8.84375 12.328125 C 7.351562 10.316406 6.453125 8.160156 6.140625 5.859375 C 5.835938 3.566406 6.128906 1.378906 7.015625 -0.703125 C 7.898438 -2.785156 9.320312 -4.546875 11.28125 -5.984375 C 13.238281 -7.429688 15.34375 -8.273438 17.59375 -8.515625 C 19.84375 -8.753906 22.019531 -8.382812 24.125 -7.40625 C 26.238281 -6.4375 28.039062 -4.945312 29.53125 -2.9375 C 31.007812 -0.925781 31.898438 1.21875 32.203125 3.5 C 32.515625 5.78125 32.222656 7.96875 31.328125 10.0625 C 30.441406 12.15625 29.019531 13.925781 27.0625 15.375 C 25.101562 16.8125 22.988281 17.648438 20.71875 17.890625 C 18.457031 18.128906 16.28125 17.765625 14.1875 16.796875 C 12.101562 15.828125 10.320312 14.335938 8.84375 12.328125 Z M 10.765625 10.90625 C 11.953125 12.519531 13.382812 13.707031 15.0625 14.46875 C 16.75 15.238281 18.507812 15.515625 20.34375 15.296875 C 22.175781 15.078125 23.882812 14.382812 25.46875 13.21875 C 27.0625 12.039062 28.226562 10.609375 28.96875 8.921875 C 29.71875 7.234375 29.976562 5.472656 29.75 3.640625 C 29.519531 1.804688 28.8125 0.0820312 27.625 -1.53125 C 26.4375 -3.132812 24.992188 -4.320312 23.296875 -5.09375 C 21.597656 -5.863281 19.832031 -6.144531 18 -5.9375 C 16.164062 -5.726562 14.453125 -5.035156 12.859375 -3.859375 C 11.273438 -2.691406 10.109375 -1.257812 9.359375 0.4375 C 8.617188 2.132812 8.367188 3.898438 8.609375 5.734375 C 8.859375 7.578125 9.578125 9.300781 10.765625 10.90625 Z M 10.765625 10.90625 "/></g></g></g><g fill="#764b36" fill-opacity="1"><g transform="translate(97.598955, 194.492005)"><g><path d="M 21.6875 -13.640625 L 23.453125 -11.640625 L 6.234375 3.5625 L 15.59375 14.171875 L 13.859375 15.703125 L 2.734375 3.09375 Z M 21.6875 -13.640625 "/></g></g></g><g fill="#764b36" fill-opacity="1"><g transform="translate(117.073577, 216.33182)"><g><path d="M 10.828125 10.609375 C 9.023438 8.890625 7.769531 6.921875 7.0625 4.703125 C 6.363281 2.484375 6.269531 0.273438 6.78125 -1.921875 C 7.300781 -4.117188 8.398438 -6.097656 10.078125 -7.859375 C 11.753906 -9.628906 13.675781 -10.828125 15.84375 -11.453125 C 18.019531 -12.078125 20.234375 -12.085938 22.484375 -11.484375 C 24.734375 -10.890625 26.757812 -9.734375 28.5625 -8.015625 C 30.375 -6.285156 31.628906 -4.328125 32.328125 -2.140625 C 33.035156 0.0351562 33.128906 2.234375 32.609375 4.453125 C 32.097656 6.671875 31.003906 8.664062 29.328125 10.4375 C 27.648438 12.195312 25.710938 13.390625 23.515625 14.015625 C 21.328125 14.640625 19.117188 14.660156 16.890625 14.078125 C 14.660156 13.492188 12.640625 12.335938 10.828125 10.609375 Z M 12.484375 8.875 C 13.941406 10.257812 15.5625 11.179688 17.34375 11.640625 C 19.132812 12.097656 20.910156 12.0625 22.671875 11.53125 C 24.441406 11 26.007812 10.019531 27.375 8.59375 C 28.738281 7.15625 29.640625 5.539062 30.078125 3.75 C 30.515625 1.96875 30.460938 0.195312 29.921875 -1.5625 C 29.378906 -3.332031 28.378906 -4.910156 26.921875 -6.296875 C 25.472656 -7.671875 23.847656 -8.585938 22.046875 -9.046875 C 20.242188 -9.515625 18.457031 -9.488281 16.6875 -8.96875 C 14.914062 -8.457031 13.347656 -7.484375 11.984375 -6.046875 C 10.617188 -4.617188 9.71875 -3.003906 9.28125 -1.203125 C 8.851562 0.597656 8.914062 2.382812 9.46875 4.15625 C 10.03125 5.925781 11.035156 7.5 12.484375 8.875 Z M 12.484375 8.875 "/></g></g></g><g fill="#764b36" fill-opacity="1"><g transform="translate(145.169193, 242.457217)"><g><path d="M 25.046875 3.5625 L 27.078125 5.15625 L 21.125 12.75 C 19.5625 12.84375 17.972656 12.601562 16.359375 12.03125 C 14.742188 11.46875 13.234375 10.640625 11.828125 9.546875 C 9.835938 7.992188 8.390625 6.15625 7.484375 4.03125 C 6.578125 1.90625 6.269531 -0.28125 6.5625 -2.53125 C 6.863281 -4.789062 7.765625 -6.878906 9.265625 -8.796875 C 10.765625 -10.710938 12.578125 -12.085938 14.703125 -12.921875 C 16.828125 -13.753906 19.023438 -13.976562 21.296875 -13.59375 C 23.566406 -13.21875 25.707031 -12.242188 27.71875 -10.671875 C 29.238281 -9.484375 30.441406 -8.148438 31.328125 -6.671875 C 32.222656 -5.203125 32.738281 -3.648438 32.875 -2.015625 L 30.5 -1.71875 C 30.164062 -4.488281 28.785156 -6.828125 26.359375 -8.734375 C 24.742188 -9.992188 23.003906 -10.773438 21.140625 -11.078125 C 19.273438 -11.390625 17.484375 -11.203125 15.765625 -10.515625 C 14.046875 -9.835938 12.578125 -8.722656 11.359375 -7.171875 C 10.140625 -5.617188 9.40625 -3.925781 9.15625 -2.09375 C 8.914062 -0.257812 9.160156 1.519531 9.890625 3.25 C 10.617188 4.976562 11.785156 6.472656 13.390625 7.734375 C 15.441406 9.335938 17.578125 10.179688 19.796875 10.265625 Z M 25.046875 3.5625 "/></g></g></g><g fill="#764b36" fill-opacity="1"><g transform="translate(173.696147, 264.232229)"><g><path d="M 15.484375 -0.34375 L 10.703125 6.984375 L 8.5 5.546875 L 13.28125 -1.78125 L 13.84375 -21.15625 L 16.234375 -19.59375 L 15.75 -2.984375 L 30.75 -10.109375 L 33 -8.65625 Z M 15.484375 -0.34375 "/></g></g></g><g fill="#764b36" fill-opacity="1"><g transform="translate(199.639655, 280.624052)"><g/></g></g><g fill="#764b36" fill-opacity="1"><g transform="translate(214.589168, 288.958262)"><g><path d="M 6.84375 -8.75 L 15.28125 -4.5 L 14.28125 -2.515625 L 5.84375 -6.765625 Z M 6.84375 -8.75 "/></g></g></g><g fill="#764b36" fill-opacity="1"><g transform="translate(233.856457, 298.389006)"><g/></g></g><g fill="#764b36" fill-opacity="1"><g transform="translate(249.629776, 305.389231)"><g><path d="M 14.09375 5.390625 C 11.75 4.535156 9.820312 3.238281 8.3125 1.5 C 6.800781 -0.226562 5.847656 -2.210938 5.453125 -4.453125 C 5.054688 -6.691406 5.273438 -8.953125 6.109375 -11.234375 C 6.953125 -13.515625 8.242188 -15.378906 9.984375 -16.828125 C 11.734375 -18.273438 13.75 -19.171875 16.03125 -19.515625 C 18.3125 -19.867188 20.628906 -19.613281 22.984375 -18.75 C 24.742188 -18.101562 26.257812 -17.210938 27.53125 -16.078125 C 28.8125 -14.941406 29.769531 -13.613281 30.40625 -12.09375 L 28.21875 -11.09375 C 27.050781 -13.65625 25.054688 -15.457031 22.234375 -16.5 C 20.347656 -17.1875 18.476562 -17.378906 16.625 -17.078125 C 14.78125 -16.773438 13.144531 -16.035156 11.71875 -14.859375 C 10.300781 -13.691406 9.253906 -12.179688 8.578125 -10.328125 C 7.898438 -8.472656 7.722656 -6.632812 8.046875 -4.8125 C 8.378906 -3 9.15625 -1.390625 10.375 0.015625 C 11.59375 1.429688 13.144531 2.484375 15.03125 3.171875 C 17.882812 4.222656 20.566406 4.132812 23.078125 2.90625 L 24.109375 5.109375 C 22.640625 5.847656 21.046875 6.238281 19.328125 6.28125 C 17.609375 6.332031 15.863281 6.035156 14.09375 5.390625 Z M 14.09375 5.390625 "/></g></g></g><g fill="#764b36" fill-opacity="1"><g transform="translate(281.660591, 316.826157)"><g><path d="M 14.609375 4.078125 C 12.191406 3.441406 10.140625 2.320312 8.453125 0.71875 C 6.773438 -0.875 5.628906 -2.757812 5.015625 -4.9375 C 4.410156 -7.125 4.414062 -9.390625 5.03125 -11.734375 C 5.65625 -14.097656 6.769531 -16.070312 8.375 -17.65625 C 9.976562 -19.25 11.90625 -20.328125 14.15625 -20.890625 C 16.414062 -21.460938 18.753906 -21.429688 21.171875 -20.796875 C 23.585938 -20.160156 25.628906 -19.050781 27.296875 -17.46875 C 28.960938 -15.882812 30.101562 -13.992188 30.71875 -11.796875 C 31.34375 -9.609375 31.34375 -7.332031 30.71875 -4.96875 C 30.101562 -2.625 28.984375 -0.648438 27.359375 0.953125 C 25.742188 2.554688 23.816406 3.632812 21.578125 4.1875 C 19.347656 4.75 17.023438 4.710938 14.609375 4.078125 Z M 15.21875 1.765625 C 17.15625 2.273438 19.015625 2.296875 20.796875 1.828125 C 22.585938 1.367188 24.128906 0.484375 25.421875 -0.828125 C 26.722656 -2.148438 27.625 -3.757812 28.125 -5.65625 C 28.625 -7.570312 28.632812 -9.421875 28.15625 -11.203125 C 27.6875 -12.984375 26.785156 -14.515625 25.453125 -15.796875 C 24.128906 -17.085938 22.5 -17.988281 20.5625 -18.5 C 18.625 -19.007812 16.753906 -19.03125 14.953125 -18.5625 C 13.160156 -18.101562 11.609375 -17.21875 10.296875 -15.90625 C 8.984375 -14.59375 8.078125 -12.976562 7.578125 -11.0625 C 7.078125 -9.164062 7.070312 -7.320312 7.5625 -5.53125 C 8.050781 -3.75 8.960938 -2.210938 10.296875 -0.921875 C 11.640625 0.359375 13.28125 1.253906 15.21875 1.765625 Z M 15.21875 1.765625 "/></g></g></g><g fill="#764b36" fill-opacity="1"><g transform="translate(318.878429, 326.199711)"><g><path d="M 28.9375 -20.9375 L 24.921875 4.015625 L 22.75 3.65625 L 9.96875 -19.171875 L 6.703125 1.078125 L 4.078125 0.65625 L 8.09375 -24.296875 L 10.265625 -23.953125 L 23.078125 -1.109375 L 26.34375 -21.359375 Z M 28.9375 -20.9375 "/></g></g></g><g fill="#764b36" fill-opacity="1"><g transform="translate(355.822477, 331.637604)"><g><path d="M 11.046875 1.015625 C 9.171875 0.878906 7.394531 0.445312 5.71875 -0.28125 C 4.039062 -1.007812 2.773438 -1.894531 1.921875 -2.9375 L 3.125 -4.90625 C 3.957031 -3.925781 5.113281 -3.101562 6.59375 -2.4375 C 8.070312 -1.769531 9.613281 -1.378906 11.21875 -1.265625 C 13.476562 -1.097656 15.195312 -1.382812 16.375 -2.125 C 17.5625 -2.863281 18.203125 -3.894531 18.296875 -5.21875 C 18.367188 -6.238281 18.125 -7.066406 17.5625 -7.703125 C 17 -8.347656 16.28125 -8.863281 15.40625 -9.25 C 14.539062 -9.644531 13.332031 -10.09375 11.78125 -10.59375 C 9.914062 -11.207031 8.429688 -11.773438 7.328125 -12.296875 C 6.234375 -12.828125 5.316406 -13.578125 4.578125 -14.546875 C 3.847656 -15.515625 3.539062 -16.78125 3.65625 -18.34375 C 3.75 -19.625 4.164062 -20.757812 4.90625 -21.75 C 5.644531 -22.75 6.738281 -23.507812 8.1875 -24.03125 C 9.632812 -24.550781 11.382812 -24.738281 13.4375 -24.59375 C 14.882812 -24.488281 16.285156 -24.1875 17.640625 -23.6875 C 18.992188 -23.195312 20.148438 -22.566406 21.109375 -21.796875 L 20.046875 -19.734375 C 19.046875 -20.503906 17.957031 -21.109375 16.78125 -21.546875 C 15.601562 -21.984375 14.4375 -22.242188 13.28125 -22.328125 C 11.082031 -22.484375 9.390625 -22.175781 8.203125 -21.40625 C 7.023438 -20.632812 6.382812 -19.578125 6.28125 -18.234375 C 6.207031 -17.222656 6.457031 -16.390625 7.03125 -15.734375 C 7.601562 -15.078125 8.335938 -14.554688 9.234375 -14.171875 C 10.128906 -13.785156 11.347656 -13.34375 12.890625 -12.84375 C 14.703125 -12.25 16.160156 -11.6875 17.265625 -11.15625 C 18.378906 -10.625 19.300781 -9.878906 20.03125 -8.921875 C 20.757812 -7.960938 21.066406 -6.71875 20.953125 -5.1875 C 20.859375 -3.90625 20.429688 -2.769531 19.671875 -1.78125 C 18.910156 -0.789062 17.800781 -0.0390625 16.34375 0.46875 C 14.882812 0.988281 13.117188 1.171875 11.046875 1.015625 Z M 11.046875 1.015625 "/></g></g></g><g fill="#764b36" fill-opacity="1"><g transform="translate(385.946008, 333.61875)"><g><path d="M 14.3125 0.015625 C 11.03125 0.0664062 8.460938 -0.832031 6.609375 -2.6875 C 4.753906 -4.539062 3.804688 -7.257812 3.765625 -10.84375 L 3.5625 -25.328125 L 6.234375 -25.375 L 6.421875 -11 C 6.460938 -8.0625 7.15625 -5.878906 8.5 -4.453125 C 9.84375 -3.023438 11.769531 -2.332031 14.28125 -2.375 C 16.800781 -2.40625 18.710938 -3.148438 20.015625 -4.609375 C 21.328125 -6.066406 21.960938 -8.265625 21.921875 -11.203125 L 21.734375 -25.578125 L 24.328125 -25.625 L 24.53125 -11.140625 C 24.570312 -7.554688 23.695312 -4.8125 21.90625 -2.90625 C 20.113281 -1 17.582031 -0.0234375 14.3125 0.015625 Z M 14.3125 0.015625 "/></g></g></g><g fill="#764b36" fill-opacity="1"><g transform="translate(422.496156, 332.624974)"><g><path d="M 1.625 -25.5625 L 4.28125 -25.828125 L 6.53125 -2.96875 L 20.609375 -4.359375 L 20.84375 -2.0625 L 4.109375 -0.40625 Z M 1.625 -25.5625 "/></g></g></g><g fill="#764b36" fill-opacity="1"><g transform="translate(451.463859, 329.45087)"><g><path d="M 4.9375 -24.1875 L -3.8125 -22.65625 L -4.21875 -24.9375 L 15.921875 -28.453125 L 16.328125 -26.171875 L 7.578125 -24.640625 L 11.53125 -2.015625 L 8.890625 -1.5625 Z M 4.9375 -24.1875 "/></g></g></g><g fill="#764b36" fill-opacity="1"><g transform="translate(479.448703, 324.163553)"><g><path d="M -1.84375 -25.546875 L 0.75 -26.171875 L 6.609375 -1.578125 L 4.015625 -0.953125 Z M -1.84375 -25.546875 "/></g></g></g><g fill="#764b36" fill-opacity="1"><g transform="translate(497.711617, 319.864121)"><g><path d="M 16.453125 -31.71875 L 24.078125 -7.609375 L 21.96875 -6.953125 L 0.296875 -21.609375 L 6.484375 -2.046875 L 3.9375 -1.25 L -3.6875 -25.359375 L -1.59375 -26.015625 L 20.125 -11.359375 L 13.9375 -30.921875 Z M 16.453125 -31.71875 "/></g></g></g><g fill="#764b36" fill-opacity="1"><g transform="translate(533.254491, 308.181911)"><g><path d="M 15.25 -20.203125 L 17.625 -21.203125 L 21.390625 -12.328125 C 20.703125 -10.910156 19.71875 -9.628906 18.4375 -8.484375 C 17.164062 -7.347656 15.710938 -6.429688 14.078125 -5.734375 C 11.753906 -4.742188 9.441406 -4.363281 7.140625 -4.59375 C 4.847656 -4.832031 2.785156 -5.628906 0.953125 -6.984375 C -0.878906 -8.335938 -2.269531 -10.132812 -3.21875 -12.375 C -4.164062 -14.613281 -4.488281 -16.863281 -4.1875 -19.125 C -3.882812 -21.382812 -3.015625 -23.414062 -1.578125 -25.21875 C -0.148438 -27.019531 1.738281 -28.421875 4.09375 -29.421875 C 5.863281 -30.171875 7.609375 -30.578125 9.328125 -30.640625 C 11.046875 -30.710938 12.65625 -30.414062 14.15625 -29.75 L 13.265625 -27.53125 C 10.660156 -28.570312 7.941406 -28.492188 5.109375 -27.296875 C 3.222656 -26.492188 1.695312 -25.347656 0.53125 -23.859375 C -0.632812 -22.378906 -1.335938 -20.722656 -1.578125 -18.890625 C -1.816406 -17.054688 -1.550781 -15.226562 -0.78125 -13.40625 C -0.0078125 -11.59375 1.113281 -10.132812 2.59375 -9.03125 C 4.082031 -7.925781 5.757812 -7.273438 7.625 -7.078125 C 9.5 -6.878906 11.375 -7.179688 13.25 -7.984375 C 15.644531 -8.992188 17.421875 -10.453125 18.578125 -12.359375 Z M 15.25 -20.203125 "/></g></g></g><g fill="#764b36" fill-opacity="1"><g transform="translate(565.919886, 293.702486)"><g/></g></g><g fill="#764b36" fill-opacity="1"><g transform="translate(581.11977, 285.836389)"><g><path d="M -3.515625 -10.546875 L 4.6875 -15.234375 L 5.796875 -13.296875 L -2.40625 -8.609375 Z M -3.515625 -10.546875 "/></g></g></g><g fill="#764b36" fill-opacity="1"><g transform="translate(599.617753, 274.982019)"><g/></g></g><g fill="#764b36" fill-opacity="1"><g transform="translate(613.918729, 265.634228)"><g><path d="M -11.21875 -23.015625 L -9.046875 -24.5625 L 5.546875 -3.921875 L 3.375 -2.375 Z M -11.21875 -23.015625 "/></g></g></g><g fill="#764b36" fill-opacity="1"><g transform="translate(629.274565, 254.856124)"><g><path d="M 3.46875 -35.5625 L 19.515625 -16.015625 L 17.8125 -14.625 L -7.765625 -20.171875 L 5.25 -4.3125 L 3.1875 -2.625 L -12.859375 -22.171875 L -11.15625 -23.5625 L 14.4375 -18.03125 L 1.421875 -33.890625 Z M 3.46875 -35.5625 "/></g></g></g><g fill="#764b36" fill-opacity="1"><g transform="translate(657.956225, 230.806447)"><g><path d="M 0.015625 -35.734375 L 17.875 -17.828125 L 16.3125 -16.28125 L -9.671875 -19.328125 L 4.8125 -4.796875 L 2.921875 -2.90625 L -14.9375 -20.8125 L -13.375 -22.375 L 12.65625 -19.34375 L -1.84375 -33.875 Z M 0.015625 -35.734375 "/></g></g></g><g fill="#764b36" fill-opacity="1"><g transform="translate(684.206627, 204.104065)"><g><path d="M 9.8125 -11.578125 C 8.226562 -9.640625 6.351562 -8.238281 4.1875 -7.375 C 2.03125 -6.519531 -0.164062 -6.269531 -2.40625 -6.625 C -4.644531 -6.988281 -6.703125 -7.941406 -8.578125 -9.484375 C -10.453125 -11.035156 -11.773438 -12.867188 -12.546875 -14.984375 C -13.328125 -17.109375 -13.5 -19.3125 -13.0625 -21.59375 C -12.632812 -23.875 -11.628906 -25.984375 -10.046875 -27.921875 C -8.453125 -29.847656 -6.585938 -31.238281 -4.453125 -32.09375 C -2.316406 -32.957031 -0.125 -33.207031 2.125 -32.84375 C 4.375 -32.488281 6.4375 -31.535156 8.3125 -29.984375 C 10.1875 -28.441406 11.515625 -26.597656 12.296875 -24.453125 C 13.078125 -22.316406 13.253906 -20.117188 12.828125 -17.859375 C 12.410156 -15.597656 11.40625 -13.503906 9.8125 -11.578125 Z M 7.96875 -13.09375 C 9.238281 -14.632812 10.035156 -16.3125 10.359375 -18.125 C 10.691406 -19.945312 10.53125 -21.71875 9.875 -23.4375 C 9.21875 -25.164062 8.128906 -26.65625 6.609375 -27.90625 C 5.085938 -29.164062 3.414062 -29.953125 1.59375 -30.265625 C -0.21875 -30.578125 -1.984375 -30.398438 -3.703125 -29.734375 C -5.429688 -29.066406 -6.929688 -27.960938 -8.203125 -26.421875 C -9.472656 -24.867188 -10.273438 -23.175781 -10.609375 -21.34375 C -10.941406 -19.519531 -10.785156 -17.738281 -10.140625 -16 C -9.492188 -14.269531 -8.410156 -12.773438 -6.890625 -11.515625 C -5.367188 -10.265625 -3.691406 -9.488281 -1.859375 -9.1875 C -0.0351562 -8.882812 1.738281 -9.070312 3.46875 -9.75 C 5.195312 -10.425781 6.695312 -11.539062 7.96875 -13.09375 Z M 7.96875 -13.09375 "/></g></g></g><g fill="#764b36" fill-opacity="1"><g transform="translate(708.195853, 174.2149)"><g><path d="M -6.796875 -35 L 7.828125 -11.53125 L 6.359375 -9.359375 L -20.859375 -14.296875 L -19.234375 -16.6875 L 4.375 -12.375 L -8.3125 -32.765625 Z M -6.796875 -35 "/></g></g></g><g fill="#764b36" fill-opacity="1"><g transform="translate(726.55856, 146.563439)"><g><path d="M 3.859375 -20.734375 L -3.015625 -8.4375 L 1.390625 -2.5 L 0.03125 -0.0625 L -16.390625 -22.484375 L -15.09375 -24.796875 L 12.609375 -22.546875 L 11.234375 -20.09375 Z M 1.5 -20.9375 L -13.328125 -22.28125 L -4.4375 -10.34375 Z M 1.5 -20.9375 "/></g></g></g><g fill="#764b36" fill-opacity="1"><g transform="translate(742.692694, 116.841135)"><g><path d="M -17.125 -17.78125 L -20.828125 -9.6875 L -22.921875 -10.640625 L -14.40625 -29.234375 L -12.3125 -28.28125 L -16.015625 -20.203125 L 4.875 -10.640625 L 3.765625 -8.21875 Z M -17.125 -17.78125 "/></g></g></g><g fill="#764b36" fill-opacity="1"><g transform="translate(754.193906, 90.786069)"><g><path d="M -22.09375 -12.953125 L -21.125 -15.453125 L 2.453125 -6.34375 L 1.484375 -3.84375 Z M -22.09375 -12.953125 "/></g></g></g><g fill="#764b36" fill-opacity="1"><g transform="translate(761.028792, 73.309128)"><g><path d="M 4.609375 -14.453125 C 3.878906 -12.054688 2.6875 -10.046875 1.03125 -8.421875 C -0.625 -6.796875 -2.550781 -5.71875 -4.75 -5.1875 C -6.957031 -4.664062 -9.222656 -4.757812 -11.546875 -5.46875 C -13.878906 -6.175781 -15.8125 -7.359375 -17.34375 -9.015625 C -18.875 -10.679688 -19.878906 -12.648438 -20.359375 -14.921875 C -20.847656 -17.191406 -20.726562 -19.523438 -20 -21.921875 C -19.269531 -24.316406 -18.082031 -26.316406 -16.4375 -27.921875 C -14.800781 -29.535156 -12.875 -30.609375 -10.65625 -31.140625 C -8.4375 -31.671875 -6.160156 -31.582031 -3.828125 -30.875 C -1.503906 -30.164062 0.425781 -28.972656 1.96875 -27.296875 C 3.507812 -25.628906 4.515625 -23.671875 4.984375 -21.421875 C 5.460938 -19.171875 5.335938 -16.847656 4.609375 -14.453125 Z M 2.328125 -15.140625 C 2.910156 -17.054688 3.003906 -18.914062 2.609375 -20.71875 C 2.210938 -22.53125 1.378906 -24.101562 0.109375 -25.4375 C -1.148438 -26.78125 -2.722656 -27.738281 -4.609375 -28.3125 C -6.503906 -28.882812 -8.347656 -28.96875 -10.140625 -28.5625 C -11.941406 -28.15625 -13.507812 -27.3125 -14.84375 -26.03125 C -16.175781 -24.75 -17.132812 -23.148438 -17.71875 -21.234375 C -18.300781 -19.316406 -18.394531 -17.453125 -18 -15.640625 C -17.601562 -13.828125 -16.773438 -12.242188 -15.515625 -10.890625 C -14.253906 -9.535156 -12.675781 -8.570312 -10.78125 -8 C -8.894531 -7.425781 -7.050781 -7.347656 -5.25 -7.765625 C -3.445312 -8.191406 -1.878906 -9.046875 -0.546875 -10.328125 C 0.785156 -11.617188 1.742188 -13.222656 2.328125 -15.140625 Z M 2.328125 -15.140625 "/></g></g></g><g fill="#764b36" fill-opacity="1"><g transform="translate(771.782328, 36.464771)"><g><path d="M -19.859375 -29.71875 L 4.9375 -24.765625 L 4.515625 -22.59375 L -18.796875 -10.6875 L 1.328125 -6.671875 L 0.8125 -4.046875 L -23.984375 -9 L -23.5625 -11.15625 L -0.25 -23.109375 L -20.375 -27.125 Z M -19.859375 -29.71875 "/></g></g></g></g></g></svg>